<svg xmlns="http://www.w3.org/2000/svg">
  <symbol id="menu" viewBox="0 0 34 20" fill="none">
    <path d="M23.1818 1.15039V4.15039L0 4.15039L1.26664e-07 1.15039L23.1818 1.15039Z" fill="#4BB1BC"/>
    <path d="M23.1818 1.15039V4.15039L0 4.15039L1.26664e-07 1.15039L23.1818 1.15039Z" fill="#4BB1BC"/>
    <path d="M23.1818 1.15039V4.15039L0 4.15039L1.26664e-07 1.15039L23.1818 1.15039Z" fill="black"/>
    <path d="M32 8.15039V11.1504L0 11.1504L1.74846e-07 8.15039L32 8.15039Z" fill="#4BB1BC"/>
    <path d="M32 8.15039V11.1504L0 11.1504L1.74846e-07 8.15039L32 8.15039Z" fill="#4BB1BC"/>
    <path d="M32 8.15039V11.1504L0 11.1504L1.74846e-07 8.15039L32 8.15039Z" fill="black"/>
    <path d="M32 15.1504V18.1504L0 18.1504L1.74846e-07 15.1504L32 15.1504Z" fill="#4BB1BC"/>
    <path d="M32 15.1504V18.1504L0 18.1504L1.74846e-07 15.1504L32 15.1504Z" fill="#4BB1BC"/>
    <path d="M32 15.1504V18.1504L0 18.1504L1.74846e-07 15.1504L32 15.1504Z" fill="black"/>
  </symbol>

  <symbol id="cross" viewBox="0 0 12 12" fill="none">
    <path d="M1 1L6.00027 6.00027M6.00027 6.00027L10.9995 10.9995M6.00027 6.00027L1.00053 11M6.00027 6.00027L11 1.00054" stroke="black" stroke-width="2"/>
  </symbol>

  <symbol id="phone" viewBox="0 0 20 20" fill="none">
    <path fill-rule="evenodd" clip-rule="evenodd" d="M13.1563 14.8749C15.0831 13.5049 15.7195 11.4371 18.1387 14.0658C20.5564 16.6946 20.3139 17.6587 18.3871 19.0287C11.0987 24.2706 -5.46969 6.86329 1.61738 0.99062C3.54421 -0.379324 3.46778 -0.586109 5.88697 2.04134C8.30469 4.67138 7.00397 5.02808 5.07861 6.39932C3.15179 7.76926 11.2295 16.2448 13.1563 14.8749Z" fill="black"/>
  </symbol>

  <symbol id="menu-icon-1" viewBox="0 0 20 20" fill="none">
    <path fill-rule="evenodd" clip-rule="evenodd" d="M13.8406 0.0565635C13.0615 0.221377 12.265 0.670755 11.7158 1.25546C10.942 2.07909 10.4774 3.21058 10.5097 4.19247L10.5197 4.49524L10.8282 4.49065C11.5525 4.47984 12.261 4.1223 12.9418 3.42402C13.8083 2.53542 14.2638 1.48059 14.2638 0.362713V0L14.1697 0.00342148C14.118 0.00531421 13.9699 0.0292281 13.8406 0.0565635ZM13.2551 4.56989C12.8864 4.64352 12.552 4.74515 12.0413 4.93886C11.8062 5.028 11.4215 5.1669 11.1865 5.24745C10.6037 5.44721 10.5469 5.44062 9.47687 5.04857C8.33051 4.62856 8.09957 4.57153 7.54501 4.57146C6.07349 4.57124 4.67517 5.42038 3.82809 6.82854C3.50084 7.37255 3.21099 8.18679 3.07593 8.94133C3.0081 9.32039 2.9989 9.48513 3.0001 10.3008C3.00119 11.0742 3.01374 11.3089 3.07518 11.7082C3.33053 13.3677 3.94595 15.0642 4.76967 16.3794C5.4766 17.5081 6.19914 18.3476 6.77569 18.7099C7.13177 18.9337 7.36441 19.0001 7.79181 19C8.21408 18.9999 8.53511 18.9225 9.15365 18.6715C9.97648 18.3377 10.364 18.2559 10.9984 18.2822C11.5056 18.3033 11.8776 18.3923 12.4531 18.6305C13.6797 19.138 14.3819 19.1206 15.1527 18.5634C15.8512 18.0584 16.869 16.658 17.4747 15.3683C17.6756 14.9407 17.9842 14.1469 17.9996 14.0184C18.0058 13.9666 17.9421 13.913 17.7382 13.798C16.7981 13.2684 16.0561 12.3658 15.7559 11.3868C15.5342 10.6638 15.5018 9.66203 15.677 8.94658C15.8978 8.04487 16.3717 7.32458 17.1471 6.71213C17.3319 6.56618 17.5007 6.44049 17.5223 6.43285C17.5716 6.41534 17.2736 6.01328 17.0286 5.76668C16.4703 5.20479 15.7422 4.81736 14.8782 4.62234C14.4103 4.51675 13.6451 4.492 13.2551 4.56989Z" fill="black"/>
  </symbol>

  <symbol id="menu-icon-2" viewBox="0 0 20 20" fill="none">
    <path d="M14 19H7C5.34315 19 4 17.6569 4 16V4C4 2.34315 5.34315 1 7 1H14C15.6569 1 17 2.34315 17 4V16C17 17.6569 15.6569 19 14 19Z" stroke="black" stroke-width="2"/>
    <circle cx="14" cy="4" r="1" fill="black"/>
  </symbol>

  <symbol id="menu-icon-3" viewBox="0 0 20 20" fill="none">
    <path d="M15 18.5H7C5.34315 18.5 4 17.1569 4 15.5V4.5C4 2.84315 5.34315 1.5 7 1.5H15C16.6569 1.5 18 2.84315 18 4.5V15.5C18 17.1569 16.6569 18.5 15 18.5Z" stroke="black" stroke-width="2"/>
    <circle cx="11" cy="15.5" r="1" fill="black"/>
  </symbol>

  <symbol id="menu-icon-4" viewBox="0 0 20 20" fill="none">
    <path d="M18 13V4C18 3.44772 17.5523 3 17 3H3C2.44772 3 2 3.44772 2 4V13M18 13H2M18 13L18.7764 14.5528C19.1088 15.2177 18.6253 16 17.882 16H2.11803C1.37465 16 0.891156 15.2177 1.22361 14.5528L2 13" stroke="black" stroke-width="2"/>
  </symbol>

  <symbol id="menu-icon-5" viewBox="0 0 20 20" fill="none">
    <g clip-path="url(#clip0_6_8411)">
      <path fill-rule="evenodd" clip-rule="evenodd" d="M9.769 6.5293C9.18328 6.5293 8.75255 6.51861 8.39977 6.50985C7.97246 6.49924 7.65952 6.49147 7.32403 6.50898C6.80934 6.53585 6.30814 6.62759 5.33252 6.95153C3.73042 7.48348 2.53212 9.26102 2.19656 10.9322C1.96205 12.1001 1.94257 12.8974 2.10734 13.3757C2.17805 13.581 2.27387 13.7002 2.39293 13.7828C2.5222 13.8723 2.75526 13.9706 3.17833 13.9967C3.56645 14.0206 3.95206 13.8862 4.33229 13.6469C4.71512 13.406 5.02509 13.1025 5.26195 12.8665C6.23306 11.899 7.59767 11.1551 9.769 11.1551C11.9403 11.1551 13.3049 11.899 14.276 12.8665C14.5129 13.1025 14.8229 13.406 15.2057 13.6469C15.5859 13.8862 15.9715 14.0206 16.3597 13.9967C16.7827 13.9706 17.0158 13.8723 17.1451 13.7828C17.2641 13.7002 17.3599 13.581 17.4306 13.3757C17.5954 12.8974 17.5759 12.1001 17.3414 10.9322C17.0059 9.26102 15.8076 7.48348 14.2055 6.95153C13.2299 6.62759 12.7287 6.53585 12.214 6.50898C11.8785 6.49147 11.5655 6.49924 11.1382 6.50985C10.7854 6.51861 10.3547 6.5293 9.769 6.5293ZM9.769 4.5293C10.2134 4.5293 10.6124 4.52053 10.9738 4.51259C11.4913 4.50121 11.9318 4.49153 12.3182 4.5117C13.0723 4.55106 13.759 4.69591 14.8357 5.05342C17.3383 5.88437 18.8776 8.4234 19.3023 10.5384C19.5429 11.7369 19.675 13.0013 19.3216 14.0272C19.1332 14.574 18.8025 15.0674 18.2844 15.4265C17.7764 15.7786 17.1616 15.951 16.4828 15.9929C15.5353 16.0513 14.7331 15.7125 14.1405 15.3396C13.5546 14.971 13.1091 14.527 12.8695 14.2884L12.8645 14.2834C12.2595 13.6806 11.3989 13.1551 9.769 13.1551C8.13904 13.1551 7.27852 13.6806 6.6735 14.2834L6.66847 14.2884C6.42893 14.527 5.98335 14.971 5.3975 15.3396C4.80493 15.7125 4.00265 16.0513 3.0552 15.9929C2.37641 15.951 1.76158 15.7786 1.25364 15.4265C0.735483 15.0674 0.404783 14.574 0.216403 14.0272C-0.137008 13.0013 -0.00494936 11.7369 0.235701 10.5384C0.660394 8.4234 2.19969 5.88437 4.70229 5.05342C5.77902 4.69591 6.46572 4.55106 7.21978 4.5117C7.60619 4.49153 8.04667 4.50121 8.56416 4.51259C8.9256 4.52053 9.32461 4.5293 9.769 4.5293Z" fill="black"/>
      <path d="M5.1352 7.69141V11.577M3.19238 9.63423H7.07802" stroke="black"/>
      <circle cx="13.9039" cy="8.33899" r="0.647584" fill="black"/>
      <circle cx="13.9039" cy="10.9293" r="0.647584" fill="black"/>
      <circle cx="12.6095" cy="9.63391" r="0.647584" fill="black"/>
      <circle cx="15.1998" cy="9.63391" r="0.647584" fill="black"/>
    </g>
    <defs>
    <clipPath id="clip0_6_8411">
    <rect width="20" height="20" fill="white"/>
    </clipPath>
    </defs>
  </symbol>

  <symbol id="catalog" viewBox="0 0 26 26" fill="none">
    <path d="M6 10C8.20914 10 10 8.20914 10 6C10 3.79086 8.20914 2 6 2C3.79086 2 2 3.79086 2 6C2 8.20914 3.79086 10 6 10Z" stroke="black" stroke-width="4" stroke-linecap="round"/>
    <path d="M6 24C8.20914 24 10 22.2091 10 20C10 17.7909 8.20914 16 6 16C3.79086 16 2 17.7909 2 20C2 22.2091 3.79086 24 6 24Z" stroke="black" stroke-width="4" stroke-linecap="round"/>
    <path d="M20 10C22.2091 10 24 8.20914 24 6C24 3.79086 22.2091 2 20 2C17.7909 2 16 3.79086 16 6C16 8.20914 17.7909 10 20 10Z" stroke="black" stroke-width="4" stroke-linecap="round"/>
    <path d="M20 24C22.2091 24 24 22.2091 24 20C24 17.7909 22.2091 16 20 16C17.7909 16 16 17.7909 16 20C16 22.2091 17.7909 24 20 24Z" stroke="black" stroke-width="4" stroke-linecap="round"/>
  </symbol>
</svg>